<svg width="45" height="30" viewBox="0 0 45 30" fill="none" xmlns="http://www.w3.org/2000/svg">
<path d="M4.09091 4.16667V1.655C4.09465 1.2173 4.30957 0.798362 4.68923 0.488696C5.06889 0.17903 5.58282 0.00349108 6.12 0H42.9709C44.0918 0 45 0.741667 45 1.655V28.345C44.9963 28.7827 44.7813 29.2016 44.4017 29.5113C44.022 29.821 43.5081 29.9965 42.9709 30H6.12C5.58166 29.9996 5.06556 29.825 4.68509 29.5147C4.30462 29.2043 4.09091 28.7836 4.09091 28.345V26.6667H40.9091V7.16667L24.5455 19.1667L4.09091 4.16667ZM0 11.6667H10.2273V15H0V11.6667ZM0 20H16.3636V23.3333H0V20Z" fill="white"/>
</svg>
