<svg width="40" height="40" viewBox="0 0 40 40" fill="none" xmlns="http://www.w3.org/2000/svg">
<path d="M20 0C8.95 0 2.91909e-06 9.1766 2.91909e-06 20.5064C-0.00226552 24.8112 1.31763 29.0075 3.77243 32.4999C6.22724 35.9923 9.69229 38.6034 13.676 39.9628C14.676 40.1412 15.05 39.526 15.05 38.9867C15.05 38.5007 15.024 36.8869 15.024 35.1684C10 36.1179 8.7 33.9134 8.3 32.7589C8.074 32.1684 7.1 30.3494 6.25 29.8614C5.55 29.4779 4.55 28.5285 6.224 28.5039C7.8 28.4772 8.924 29.9906 9.3 30.6058C11.1 33.7063 13.976 32.8348 15.124 32.2975C15.3 30.9646 15.824 30.0685 16.4 29.5558C11.95 29.0432 7.3 27.2735 7.3 19.4298C7.3 17.1987 8.074 15.3552 9.35 13.9177C9.15 13.405 8.45 11.3031 9.55 8.48349C9.55 8.48349 11.224 7.94622 15.05 10.5874C16.6781 10.1241 18.3603 9.89093 20.05 9.89433C21.75 9.89433 23.45 10.124 25.05 10.5854C28.874 7.91956 30.55 8.48554 30.55 8.48554C31.65 11.3052 30.95 13.4071 30.75 13.9197C32.024 15.3552 32.8 17.1741 32.8 19.4298C32.8 27.3001 28.126 29.0432 23.676 29.5558C24.4 30.1956 25.026 31.426 25.026 33.3495C25.026 36.0912 25 38.2957 25 38.9888C25 39.526 25.376 40.1658 26.376 39.9608C30.3461 38.5864 33.7958 35.9702 36.2398 32.4804C38.6838 28.9905 39.9989 24.8027 40 20.5064C40 9.1766 31.05 0 20 0Z" fill="white"/>
</svg>
