<svg width="40" height="40" viewBox="0 0 40 40" fill="none" xmlns="http://www.w3.org/2000/svg">
<path d="M34.0778 34.0867H28.1556V24.8044C28.1556 22.5911 28.1111 19.7422 25.0667 19.7422C21.98 19.7422 21.5089 22.1511 21.5089 24.6422V34.0867H15.5844V15H21.2733V17.6H21.3511C22.1467 16.1022 24.08 14.5178 26.9689 14.5178C32.9689 14.5178 34.08 18.4689 34.08 23.6089V34.0867H34.0778ZM8.89556 12.3889C8.44346 12.3895 7.99569 12.3008 7.57792 12.128C7.16015 11.9552 6.78059 11.7016 6.46102 11.3819C6.14144 11.0621 5.88812 10.6824 5.71558 10.2645C5.54304 9.84659 5.45468 9.39877 5.45556 8.94667C5.456 8.2663 5.65818 7.60134 6.03654 7.03588C6.41489 6.47042 6.95243 6.02985 7.58118 5.76989C8.20992 5.50993 8.90164 5.44226 9.56885 5.57542C10.2361 5.70859 10.8488 6.03661 11.3296 6.51801C11.8104 6.99942 12.1376 7.61258 12.2699 8.27996C12.4022 8.94734 12.3336 9.63896 12.0729 10.2674C11.8121 10.8958 11.3708 11.4328 10.8049 11.8104C10.2389 12.188 9.5737 12.3893 8.89333 12.3889H8.89556ZM11.8644 34.0867H5.92444V15H11.8667V34.0867H11.8644ZM37.0444 0H2.95333C1.31778 0 0 1.28889 0 2.88222V37.1178C0 38.7111 1.32 40 2.95111 40H37.0356C38.6667 40 40 38.7111 40 37.1178V2.88222C40 1.28889 38.6667 0 37.0356 0H37.0422H37.0444Z" fill="white"/>
</svg>
