<svg width="60" height="41" viewBox="0 0 60 41" fill="none" xmlns="http://www.w3.org/2000/svg">
<path d="M0 0H43.4783V8.0392H8.0392C3.59927 8.0392 0 4.43993 0 0Z" fill="white"/>
<mask id="path-2-inside-1_321_43" fill="white">
<path d="M43.0434 0C45.2702 2.45493e-08 47.4752 0.405483 49.5324 1.1933C51.5897 1.98111 53.4589 3.13583 55.0335 4.59152C56.6081 6.04721 57.8571 7.77537 58.7092 9.67732C59.5614 11.5793 60 13.6178 60 15.6764L51.3521 15.6764C51.3521 14.6677 51.1372 13.6688 50.7197 12.7369C50.3021 11.8049 49.6901 10.9581 48.9186 10.2448C48.147 9.53154 47.2311 8.96573 46.223 8.5797C45.215 8.19367 44.1345 7.99498 43.0434 7.99498V0Z"/>
</mask>
<path d="M43.0434 0C45.2702 2.45493e-08 47.4752 0.405483 49.5324 1.1933C51.5897 1.98111 53.4589 3.13583 55.0335 4.59152C56.6081 6.04721 57.8571 7.77537 58.7092 9.67732C59.5614 11.5793 60 13.6178 60 15.6764L51.3521 15.6764C51.3521 14.6677 51.1372 13.6688 50.7197 12.7369C50.3021 11.8049 49.6901 10.9581 48.9186 10.2448C48.147 9.53154 47.2311 8.96573 46.223 8.5797C45.215 8.19367 44.1345 7.99498 43.0434 7.99498V0Z" stroke="white" stroke-width="20" mask="url(#path-2-inside-1_321_43)"/>
<mask id="path-3-inside-2_321_43" fill="white">
<path d="M16.5215 20.9021C16.5215 23.5414 17.0838 26.1548 18.1763 28.5932C19.2688 31.0316 20.8701 33.2472 22.8887 35.1135C24.9074 36.9798 27.3039 38.4602 29.9414 39.4702C32.5789 40.4802 35.4058 41.0001 38.2606 41.0001C41.1154 41.0001 43.9423 40.4802 46.5798 39.4702C49.2173 38.4602 51.6138 36.9798 53.6325 35.1135C55.6512 33.2472 57.2525 31.0316 58.345 28.5932C59.4375 26.1548 59.9997 23.5414 59.9997 20.9021H51.3041C51.3041 22.4857 50.9667 24.0537 50.3112 25.5168C49.6557 26.9798 48.695 28.3092 47.4837 29.4289C46.2726 30.5487 44.8346 31.4369 43.2521 32.0429C41.6696 32.649 39.9735 32.9609 38.2606 32.9609C36.5477 32.9609 34.8516 32.649 33.2691 32.0429C31.6866 31.4369 30.2487 30.5487 29.0375 29.4289C27.8263 28.3092 26.8655 26.9798 26.21 25.5168C25.5545 24.0537 25.2171 22.4856 25.2171 20.9021H16.5215Z"/>
</mask>
<path d="M16.5215 20.9021C16.5215 23.5414 17.0838 26.1548 18.1763 28.5932C19.2688 31.0316 20.8701 33.2472 22.8887 35.1135C24.9074 36.9798 27.3039 38.4602 29.9414 39.4702C32.5789 40.4802 35.4058 41.0001 38.2606 41.0001C41.1154 41.0001 43.9423 40.4802 46.5798 39.4702C49.2173 38.4602 51.6138 36.9798 53.6325 35.1135C55.6512 33.2472 57.2525 31.0316 58.345 28.5932C59.4375 26.1548 59.9997 23.5414 59.9997 20.9021H51.3041C51.3041 22.4857 50.9667 24.0537 50.3112 25.5168C49.6557 26.9798 48.695 28.3092 47.4837 29.4289C46.2726 30.5487 44.8346 31.4369 43.2521 32.0429C41.6696 32.649 39.9735 32.9609 38.2606 32.9609C36.5477 32.9609 34.8516 32.649 33.2691 32.0429C31.6866 31.4369 30.2487 30.5487 29.0375 29.4289C27.8263 28.3092 26.8655 26.9798 26.21 25.5168C25.5545 24.0537 25.2171 22.4856 25.2171 20.9021H16.5215Z" stroke="white" stroke-width="20" mask="url(#path-3-inside-2_321_43)"/>
<path d="M7.82666 15.2744H25.218V23.3136H15.8659C11.4259 23.3136 7.82666 19.7143 7.82666 15.2744Z" fill="white"/>
<path d="M39.1304 20.0982H59.9999C59.9999 24.0941 56.7606 27.3335 52.7647 27.3335H46.3656C42.3697 27.3335 39.1304 24.0941 39.1304 20.0982Z" fill="white"/>
</svg>
