<svg width="39" height="39" viewBox="0 0 39 39" fill="none" xmlns="http://www.w3.org/2000/svg">
<path d="M0.760455 38.2507L3.29546 28.9357C1.62509 26.0723 0.74751 22.8157 0.752955 19.5007C0.752955 9.14511 9.14734 0.750732 19.503 0.750732C29.8586 0.750732 38.253 9.14511 38.253 19.5007C38.253 29.8563 29.8586 38.2507 19.503 38.2507C16.1894 38.2561 12.9342 37.3792 10.0717 35.7101L0.760455 38.2507ZM12.7361 10.7032C12.494 10.7183 12.2574 10.782 12.0405 10.8907C11.8371 11.0059 11.6514 11.1499 11.4892 11.3182C11.2642 11.5301 11.1367 11.7139 10.9998 11.892C10.3069 12.7938 9.9341 13.9009 9.94046 15.0382C9.94421 15.957 10.1842 16.8514 10.5592 17.6876C11.3261 19.3789 12.588 21.1695 14.2548 22.8289C14.6561 23.2282 15.048 23.6295 15.4698 24.0026C17.5387 25.8241 20.0041 27.1377 22.6698 27.8389L23.7367 28.002C24.0836 28.0207 24.4305 27.9945 24.7792 27.9776C25.3253 27.9494 25.8585 27.8016 26.3411 27.5445C26.6523 27.3795 26.7986 27.297 27.0592 27.132C27.0592 27.132 27.1398 27.0795 27.2936 26.9632C27.5467 26.7757 27.7023 26.6426 27.9123 26.4232C28.068 26.262 28.203 26.0726 28.3061 25.857C28.4523 25.5514 28.5986 24.9682 28.6586 24.4826C28.7036 24.1114 28.6905 23.9089 28.6848 23.7832C28.6773 23.5826 28.5105 23.3745 28.3286 23.2864L27.2373 22.797C27.2373 22.797 25.6061 22.0864 24.6105 21.6326C24.5055 21.5868 24.393 21.5608 24.2786 21.5557C24.1503 21.5426 24.0207 21.557 23.8984 21.5981C23.7762 21.6391 23.6642 21.7059 23.5698 21.7939V21.7901C23.5605 21.7901 23.4348 21.897 22.0792 23.5395C22.0014 23.644 21.8942 23.723 21.7713 23.7665C21.6485 23.8099 21.5154 23.8157 21.3892 23.7832C21.267 23.7506 21.1474 23.7092 21.0311 23.6595C20.7986 23.562 20.718 23.5245 20.5586 23.4551L20.5492 23.4514C19.4765 22.983 18.4834 22.3504 17.6055 21.5764C17.3692 21.3701 17.1498 21.1451 16.9248 20.9276C16.1872 20.2212 15.5443 19.422 15.0123 18.5501L14.9017 18.372C14.8223 18.2523 14.758 18.1232 14.7105 17.9876C14.6392 17.712 14.8248 17.4907 14.8248 17.4907C14.8248 17.4907 15.2805 16.992 15.4923 16.722C15.6688 16.4976 15.8334 16.2641 15.9855 16.0226C16.2067 15.6664 16.2761 15.3007 16.1598 15.0176C15.6348 13.7351 15.0911 12.4582 14.5323 11.1907C14.4217 10.9395 14.0936 10.7595 13.7955 10.7239C13.6942 10.7126 13.593 10.7014 13.4917 10.6939C13.2399 10.6813 12.9876 10.6839 12.7361 10.7014V10.7032Z" fill="white"/>
</svg>
