<svg width="55" height="175" viewBox="0 0 55 175" fill="none" xmlns="http://www.w3.org/2000/svg">
<path d="M50.8555 0.858887L54.3022 10.9341C47.2909 13.1141 42.4595 17.0322 39.8081 22.6885C37.1567 28.2858 35.8311 34.708 35.8311 41.9551V60.2495C35.8311 66.1414 34.6232 71.5031 32.2075 76.3345C29.8507 81.1069 26.0799 84.9072 20.895 87.7354C15.769 90.5635 9.02279 91.9775 0.65625 91.9775V81.1953C7.31413 81.1953 12.0866 79.3099 14.9736 75.5391C17.9196 71.7682 19.3926 66.6717 19.3926 60.2495V41.9551C19.3926 35.7686 20.3353 29.9945 22.2207 24.6328C24.165 19.2122 27.4056 14.4692 31.9424 10.4038C36.5381 6.27946 42.8424 3.09782 50.8555 0.858887ZM54.3022 164.183L50.8555 174.347C42.8424 172.049 36.5381 168.867 31.9424 164.802C27.4056 160.736 24.165 155.993 22.2207 150.573C20.3353 145.211 19.3926 139.437 19.3926 133.25V115.044C19.3926 110.743 18.7445 107.031 17.4482 103.909C16.152 100.786 14.1193 98.3703 11.3501 96.6616C8.63981 94.894 5.0752 94.0103 0.65625 94.0103V83.228C9.02279 83.228 15.769 84.6421 20.895 87.4702C26.0799 90.2983 29.8507 94.1281 32.2075 98.9595C34.6232 103.732 35.8311 109.094 35.8311 115.044V133.25C35.8311 138.082 36.3908 142.56 37.5103 146.684C38.6886 150.808 40.6035 154.373 43.2549 157.378C45.9652 160.442 49.6476 162.71 54.3022 164.183Z" fill="#FF0022"/>
</svg>
