<svg width="55" height="175" viewBox="0 0 55 175" fill="none" xmlns="http://www.w3.org/2000/svg">
<path d="M0.767578 10.9341L4.21436 0.858887C12.2863 3.09782 18.5907 6.27946 23.1274 10.4038C27.7231 14.4692 30.9637 19.2122 32.8491 24.6328C34.7345 29.9945 35.6772 35.7686 35.6772 41.9551V60.2495C35.6772 64.4917 36.3254 68.2036 37.6216 71.3853C38.9178 74.508 40.9211 76.9237 43.6313 78.6323C46.4006 80.341 49.9946 81.1953 54.4136 81.1953V91.1821C46.106 91.1821 39.3597 89.8564 34.1748 87.2051C28.9899 84.4948 25.1896 80.8123 22.7739 76.1577C20.4172 71.4442 19.2388 66.1414 19.2388 60.2495V41.9551C19.2388 37.1237 18.679 32.6458 17.5596 28.5215C16.4401 24.3382 14.5252 20.7441 11.8149 17.7393C9.16357 14.6755 5.48112 12.4071 0.767578 10.9341ZM4.21436 174.347L0.767578 164.183C5.4222 162.71 9.0752 160.442 11.7266 157.378C14.4368 154.373 16.3517 150.808 17.4712 146.684C18.6496 142.56 19.2388 138.082 19.2388 133.25V115.044C19.2388 109.094 20.4172 103.791 22.7739 99.1362C25.1896 94.4816 28.9899 90.8286 34.1748 88.1772C39.3597 85.467 46.106 84.1118 54.4136 84.1118V94.0103C47.8146 94.0103 43.0422 95.9251 40.0962 99.7549C37.1502 103.526 35.6772 108.622 35.6772 115.044V133.25C35.6772 139.437 34.7345 145.211 32.8491 150.573C30.9637 155.993 27.7231 160.736 23.1274 164.802C18.5907 168.867 12.2863 172.049 4.21436 174.347Z" fill="#FF0022"/>
</svg>
